<?xml version="1.0" encoding="UTF-8" standalone="no"?>
<!DOCTYPE svg PUBLIC "-//W3C//DTD SVG 1.1//EN" "http://www.w3.org/Graphics/SVG/1.1/DTD/svg11.dtd">
<svg version="1.1" xmlns="http://www.w3.org/2000/svg" xmlns:xlink="http://www.w3.org/1999/xlink" preserveAspectRatio="xMidYMid meet" viewBox="0 0 640 640" width="640" height="640"><defs><path d="M337.62 117.75C283.13 117.75 231.9 138.97 193.37 177.5C154.84 216.03 133.62 267.26 133.62 321.75C133.62 376.25 154.84 427.48 193.37 466.01C231.9 504.54 283.13 525.76 337.62 525.76C392.11 525.76 443.34 504.54 481.87 466.01C520.41 427.48 541.63 376.25 541.63 321.75C541.63 267.26 520.41 216.03 481.87 177.5C443.34 138.97 392.11 117.75 337.62 117.75M337.62 526.33C282.98 526.33 231.61 505.05 192.97 466.41C154.33 427.77 133.05 376.4 133.05 321.75C133.05 267.11 154.33 215.74 192.97 177.1C231.61 138.46 282.98 117.18 337.62 117.18C392.27 117.18 443.64 138.46 482.28 177.1C520.92 215.74 542.2 267.11 542.2 321.75C542.2 376.4 520.92 427.77 482.28 466.41C443.64 505.05 392.27 526.33 337.62 526.33" id="eIExHTZEd"></path><path d="M337.62 93.46C306.8 93.46 276.91 99.5 248.76 111.4C221.58 122.9 197.16 139.36 176.2 160.33C155.23 181.29 138.77 205.71 127.27 232.89C115.37 261.04 109.33 290.93 109.33 321.75C109.33 352.57 115.37 382.47 127.27 410.61C138.77 437.8 155.23 462.21 176.2 483.18C197.16 504.15 221.58 520.61 248.76 532.1C276.91 544.01 306.8 550.04 337.62 550.04C368.44 550.04 398.34 544.01 426.48 532.1C453.67 520.61 478.08 504.15 499.05 483.18C520.01 462.21 536.47 437.8 547.97 410.61C559.88 382.47 565.91 352.57 565.91 321.75C565.91 290.93 559.88 261.04 547.97 232.89C536.47 205.71 520.01 181.29 499.05 160.33C478.08 139.36 453.67 122.9 426.48 111.4C398.34 99.5 368.44 93.46 337.62 93.46M337.62 550.68C306.72 550.68 276.74 544.63 248.51 532.69C221.25 521.16 196.77 504.66 175.75 483.63C154.72 462.61 138.21 438.12 126.68 410.87C114.74 382.64 108.69 352.66 108.69 321.75C108.69 290.85 114.74 260.87 126.68 232.64C138.21 205.38 154.72 180.9 175.75 159.88C196.77 138.85 221.25 122.34 248.51 110.82C276.74 98.88 306.72 92.82 337.62 92.82C368.53 92.82 398.51 98.88 426.73 110.82C453.99 122.34 478.48 138.85 499.5 159.88C520.52 180.9 537.03 205.38 548.56 232.64C560.5 260.87 566.55 290.85 566.55 321.75C566.55 352.66 560.5 382.64 548.56 410.87C537.03 438.12 520.52 462.61 499.5 483.63C478.48 504.66 453.99 521.16 426.73 532.69C398.51 544.63 368.53 550.68 337.62 550.68" id="b4CbmRzAU1"></path><path d="M337.81 160.46C316.03 160.46 294.91 164.72 275.02 173.13C255.82 181.26 238.57 192.89 223.75 207.7C208.94 222.51 197.31 239.76 189.18 258.97C180.77 278.86 176.51 299.98 176.51 321.75C176.51 343.53 180.77 364.65 189.18 384.54C197.31 403.75 208.94 421 223.75 435.81C238.57 450.62 255.82 462.25 275.02 470.38C294.91 478.79 316.03 483.05 337.81 483.05C359.58 483.05 380.71 478.79 400.59 470.38C419.8 462.25 437.05 450.62 451.86 435.81C466.68 421 478.31 403.75 486.43 384.54C494.84 364.65 499.11 343.53 499.11 321.75C499.11 299.98 494.84 278.86 486.43 258.97C478.31 239.76 466.68 222.51 451.86 207.7C437.05 192.89 419.8 181.26 400.59 173.13C380.71 164.72 359.58 160.46 337.81 160.46M337.81 483.51C315.97 483.51 294.79 479.23 274.85 470.79C255.59 462.65 238.29 450.99 223.43 436.13C208.58 421.28 196.92 403.98 188.77 384.72C180.33 364.78 176.06 343.59 176.06 321.75C176.06 299.92 180.33 278.73 188.77 258.79C196.92 239.53 208.58 222.23 223.43 207.38C238.29 192.53 255.59 180.86 274.85 172.72C294.79 164.28 315.97 160 337.81 160C359.65 160 380.83 164.28 400.77 172.72C420.03 180.86 437.33 192.53 452.18 207.38C467.04 222.23 478.7 239.53 486.85 258.79C495.28 278.73 499.56 299.92 499.56 321.75C499.56 343.59 495.28 364.78 486.85 384.72C478.7 403.98 467.04 421.28 452.18 436.13C437.33 450.99 420.03 462.65 400.77 470.79C380.83 479.23 359.65 483.51 337.81 483.51" id="d1lhNpX9PW"></path><path d="M337.62 64.77C302.93 64.77 269.27 71.56 237.59 84.96C206.99 97.91 179.51 116.44 155.91 140.04C132.3 163.64 113.78 191.12 100.83 221.72C87.43 253.41 80.64 287.06 80.64 321.75C80.64 356.45 87.43 390.1 100.83 421.78C113.78 452.39 132.3 479.87 155.91 503.47C179.51 527.07 206.99 545.6 237.59 558.54C269.27 571.95 302.93 578.74 337.62 578.74C372.31 578.74 405.97 571.95 437.65 558.54C468.25 545.6 495.74 527.07 519.34 503.47C542.94 479.87 561.47 452.39 574.41 421.78C587.81 390.1 594.61 356.45 594.61 321.75C594.61 287.06 587.81 253.41 574.41 221.72C561.47 191.12 542.94 163.64 519.34 140.04C495.74 116.44 468.25 97.91 437.65 84.96C405.97 71.56 372.31 64.77 337.62 64.77M337.62 579.46C302.83 579.46 269.08 572.65 237.31 559.21C206.62 546.23 179.06 527.65 155.4 503.98C131.73 480.31 113.15 452.75 100.17 422.07C86.73 390.29 79.92 356.54 79.92 321.75C79.92 286.96 86.73 253.21 100.17 221.44C113.15 190.75 131.73 163.2 155.4 139.53C179.06 115.86 206.62 97.28 237.31 84.3C269.08 70.86 302.83 64.05 337.62 64.05C372.41 64.05 406.16 70.86 437.93 84.3C468.62 97.28 496.18 115.86 519.85 139.53C543.52 163.2 562.1 190.75 575.08 221.44C588.52 253.21 595.33 286.96 595.33 321.75C595.33 356.54 588.52 390.29 575.08 422.07C562.1 452.75 543.52 480.31 519.85 503.98C496.18 527.65 468.62 546.23 437.93 559.21C406.16 572.65 372.41 579.46 337.62 579.46" id="b2IvoolkoW"></path><path d="M337.62 34.14C298.8 34.14 261.13 41.75 225.67 56.74C191.42 71.23 160.66 91.97 134.25 118.38C107.84 144.8 87.1 175.56 72.61 209.8C57.62 245.26 50.01 282.93 50.01 321.75C50.01 360.58 57.62 398.25 72.61 433.7C87.1 467.95 107.84 498.71 134.25 525.13C160.66 551.54 191.42 572.28 225.67 586.76C261.13 601.76 298.8 609.37 337.62 609.37C376.45 609.37 414.12 601.76 449.57 586.76C483.82 572.28 514.58 551.54 540.99 525.13C567.41 498.71 588.15 467.95 602.63 433.7C617.63 398.25 625.23 360.58 625.23 321.75C625.23 282.93 617.63 245.26 602.63 209.8C588.15 175.56 567.41 144.8 540.99 118.38C514.58 91.97 483.82 71.23 449.57 56.74C414.12 41.75 376.45 34.14 337.62 34.14M337.62 610.17C298.69 610.17 260.91 602.55 225.36 587.51C191.01 572.98 160.17 552.18 133.68 525.7C107.19 499.21 86.4 468.36 71.87 434.02C56.83 398.46 49.21 360.69 49.21 321.75C49.21 282.82 56.83 245.05 71.87 209.49C86.4 175.14 107.19 144.3 133.68 117.81C160.17 91.32 191.01 70.53 225.36 56C260.91 40.96 298.69 33.34 337.62 33.34C376.56 33.34 414.33 40.96 449.89 56C484.23 70.53 515.08 91.32 541.56 117.81C568.05 144.3 588.85 175.14 603.38 209.49C618.42 245.05 626.04 282.82 626.04 321.75C626.04 360.69 618.42 398.46 603.38 434.02C588.85 468.36 568.05 499.21 541.56 525.7C515.08 552.18 484.23 572.98 449.89 587.51C414.33 602.55 376.56 610.17 337.62 610.17" id="a43fkbUKFN"></path><path d="M353.77 64.79C317.92 64.79 283.14 71.81 250.41 85.66C218.79 99.03 190.39 118.18 166 142.57C141.62 166.95 122.47 195.35 109.1 226.97C95.25 259.71 88.23 294.48 88.23 330.33C88.23 366.18 95.25 400.95 109.1 433.69C122.47 465.31 141.62 493.71 166 518.09C190.39 542.48 218.79 561.62 250.41 575C283.14 588.85 317.92 595.86 353.77 595.86C389.61 595.86 424.39 588.85 457.13 575C488.75 561.62 517.14 542.48 541.53 518.09C565.92 493.71 585.06 465.31 598.44 433.69C612.28 400.95 619.3 366.18 619.3 330.33C619.3 294.48 612.28 259.71 598.44 226.97C585.06 195.35 565.92 166.95 541.53 142.57C517.14 118.18 488.75 99.03 457.13 85.66C424.39 71.81 389.61 64.79 353.77 64.79M353.77 596.61C317.82 596.61 282.95 589.57 250.12 575.68C218.41 562.27 189.93 543.07 165.48 518.62C141.02 494.16 121.82 465.69 108.41 433.98C94.53 401.15 87.48 366.28 87.48 330.33C87.48 294.38 94.53 259.51 108.41 226.68C121.82 194.97 141.02 166.49 165.48 142.04C189.93 117.58 218.41 98.38 250.12 84.97C282.95 71.09 317.82 64.05 353.77 64.05C389.71 64.05 424.59 71.09 457.42 84.97C489.12 98.38 517.6 117.58 542.06 142.04C566.51 166.49 585.71 194.97 599.12 226.68C613.01 259.51 620.05 294.38 620.05 330.33C620.05 366.28 613.01 401.15 599.12 433.98C585.71 465.69 566.51 494.16 542.06 518.62C517.6 543.07 489.12 562.27 457.42 575.68C424.59 589.57 389.71 596.61 353.77 596.61" id="bsqdTmWQo"></path><path d="M340.18 117.31C340.18 128.07 331.45 136.79 320.69 136.79C309.93 136.79 301.2 128.07 301.2 117.31C301.2 106.54 309.93 97.82 320.69 97.82C331.45 97.82 340.18 106.54 340.18 117.31" id="b1j844snii"></path><path d="M320.69 136.62C320.69 136.62 320.66 136.62 320.6 136.61C320.55 136.62 320.52 136.62 320.52 136.62C320.55 136.62 320.66 136.62 320.69 136.62Z" id="abZqV4xcX"></path><path d="M332.02 130.79C331.85 127.09 329.62 124.69 328.07 124.86C326.53 125.03 322.92 124.52 322.92 124.52C322.66 123.93 322.62 123.18 322.69 122.44C324.36 121.36 325.61 118.96 325.9 116.07C326.28 115.99 326.67 115.54 326.86 114.92C327.09 114.17 326.92 113.44 326.48 113.31C326.32 113.26 326.14 113.3 325.98 113.4C326 109.43 325.87 106.4 320.69 106.4C315.8 106.4 315.44 109.39 315.42 113.32C315.28 113.21 315.13 113.15 314.97 113.17C314.51 113.22 314.22 113.9 314.32 114.69C314.41 115.48 314.86 116.07 315.31 116.01C315.37 116.01 315.43 115.99 315.48 115.97C315.74 118.79 316.91 121.15 318.5 122.3C318.59 123.08 318.57 123.89 318.29 124.52C318.29 124.52 314.68 125.03 313.13 124.86C311.59 124.69 309.36 127.09 309.18 130.79C309.02 134.29 319.55 136.4 320.6 136.61C321.66 136.4 332.19 134.29 332.02 130.79" id="a2w0uJRLbp"></path><path d="M238.72 511.78C238.72 528.16 225.44 541.44 209.06 541.44C192.68 541.44 179.4 528.16 179.4 511.78C179.4 495.4 192.68 482.12 209.06 482.12C225.44 482.12 238.72 495.4 238.72 511.78" id="c2rZjYXoTZ"></path><path d="M209.06 541.18C209.06 541.18 209.01 541.17 208.93 541.15C208.84 541.17 208.8 541.18 208.8 541.18C208.85 541.18 209.01 541.18 209.06 541.18Z" id="bkA4CxBkV"></path><path d="M226.3 532.29C226.04 526.67 222.64 523.02 220.29 523.28C217.94 523.54 212.46 522.75 212.46 522.75C212.05 521.86 212 520.71 212.11 519.59C214.65 517.94 216.54 514.3 216.99 509.89C217.56 509.78 218.16 509.09 218.45 508.16C218.79 507 218.53 505.9 217.86 505.7C217.62 505.63 217.36 505.68 217.1 505.84C217.14 499.8 216.94 495.19 209.07 495.19C201.62 495.19 201.07 499.74 201.04 505.71C200.83 505.54 200.59 505.45 200.36 505.48C199.66 505.56 199.21 506.6 199.36 507.8C199.5 509 200.18 509.9 200.88 509.82C200.96 509.8 201.05 509.78 201.13 509.74C201.53 514.04 203.3 517.64 205.73 519.39C205.86 520.57 205.83 521.81 205.4 522.75C205.4 522.75 199.91 523.54 197.56 523.28C195.21 523.02 191.81 526.67 191.55 532.29C191.3 537.63 207.32 540.84 208.93 541.15C210.53 540.84 226.55 537.63 226.3 532.29" id="d4gCme2Hh6"></path><path d="M582.29 268.45C582.29 280.61 572.43 290.48 560.26 290.48C548.09 290.48 538.23 280.61 538.23 268.45C538.23 256.28 548.09 246.41 560.26 246.41C572.43 246.41 582.29 256.28 582.29 268.45" id="bc2mXzxa2"></path><path d="M560.26 290.28C560.26 290.28 560.22 290.28 560.16 290.27C560.1 290.28 560.06 290.28 560.06 290.28C560.1 290.28 560.22 290.28 560.26 290.28Z" id="jDS7njHQA"></path><path d="M573.07 283.68C572.88 279.51 570.35 276.79 568.6 276.99C566.86 277.18 562.78 276.6 562.78 276.6C562.48 275.94 562.44 275.08 562.52 274.25C564.41 273.03 565.82 270.32 566.15 267.05C566.58 266.96 567.02 266.45 567.23 265.76C567.49 264.9 567.3 264.08 566.8 263.93C566.62 263.88 566.42 263.92 566.24 264.03C566.26 259.55 566.11 256.12 560.27 256.12C554.74 256.12 554.33 259.5 554.3 263.94C554.14 263.81 553.97 263.75 553.79 263.77C553.28 263.83 552.95 264.6 553.05 265.49C553.16 266.38 553.66 267.05 554.18 266.99C554.25 266.98 554.31 266.96 554.37 266.93C554.67 270.13 555.99 272.8 557.78 274.1C557.88 274.98 557.86 275.9 557.54 276.6C557.54 276.6 553.46 277.18 551.72 276.99C549.97 276.79 547.45 279.51 547.25 283.68C547.07 287.65 558.97 290.04 560.16 290.27C561.35 290.04 573.25 287.65 573.07 283.68" id="aisQdyseQ"></path><path d="M131.29 404.54C131.29 408.35 128.2 411.44 124.39 411.44C120.58 411.44 117.49 408.35 117.49 404.54C117.49 400.73 120.58 397.64 124.39 397.64C128.2 397.64 131.29 400.73 131.29 404.54" id="eF1ROpD8u"></path><path d="M573.43 338.69C573.43 342.5 570.34 345.59 566.53 345.59C562.72 345.59 559.63 342.5 559.63 338.69C559.63 334.88 562.72 331.79 566.53 331.79C570.34 331.79 573.43 334.88 573.43 338.69" id="a3yAGKCj7R"></path><path d="M404.33 104.94C402.84 106.8 400.13 107.1 398.28 105.62C396.42 104.13 396.12 101.42 397.6 99.56C399.08 97.71 401.79 97.4 403.65 98.89C405.51 100.37 405.81 103.08 404.33 104.94" id="b32ohA7kJe"></path><path d="M382 521.08C382.41 523.43 380.83 525.66 378.49 526.06C376.14 526.46 373.92 524.89 373.52 522.54C373.11 520.2 374.69 517.97 377.03 517.57C379.37 517.17 381.6 518.74 382 521.08" id="e4bYklp3wS"></path><path d="M305.49 584.43C305.89 586.77 304.32 589 301.98 589.4C299.63 589.8 297.41 588.23 297 585.88C296.6 583.54 298.17 581.31 300.52 580.91C302.86 580.51 305.09 582.08 305.49 584.43" id="h1qXnKuDik"></path><path d="M603.39 370.57C603.79 372.91 602.21 375.14 599.87 375.54C597.53 375.95 595.3 374.37 594.9 372.03C594.49 369.68 596.07 367.46 598.41 367.05C600.76 366.65 602.98 368.22 603.39 370.57" id="b1epartAwc"></path><path d="M168.78 116.58C169.18 118.92 167.6 121.15 165.26 121.55C162.92 121.95 160.69 120.38 160.29 118.03C159.88 115.69 161.46 113.46 163.8 113.06C166.15 112.66 168.37 114.23 168.78 116.58" id="a24cNjmp2J"></path><path d="M87.37 282.24C87.37 290.2 80.92 296.65 72.97 296.65C65.01 296.65 58.56 290.2 58.56 282.24C58.56 274.29 65.01 267.84 72.97 267.84C80.92 267.84 87.37 274.29 87.37 282.24" id="d2fkJwQHmu"></path><path d="M72.97 296.52C72.97 296.52 72.94 296.52 72.9 296.51C72.86 296.52 72.84 296.52 72.84 296.52C72.87 296.52 72.94 296.52 72.97 296.52Z" id="d4BgwddUk8"></path><path d="M81.34 292.21C81.22 289.48 79.57 287.7 78.42 287.83C77.28 287.96 74.62 287.57 74.62 287.57C74.42 287.14 74.4 286.58 74.45 286.04C75.68 285.24 76.6 283.47 76.82 281.33C77.1 281.27 77.39 280.94 77.53 280.48C77.7 279.92 77.57 279.39 77.24 279.29C77.13 279.26 77 279.28 76.87 279.36C76.89 276.42 76.79 274.18 72.97 274.18C69.36 274.18 69.09 276.4 69.07 279.3C68.97 279.21 68.86 279.17 68.74 279.19C68.4 279.23 68.19 279.73 68.26 280.31C68.33 280.89 68.66 281.33 68.99 281.29C69.04 281.29 69.08 281.27 69.12 281.25C69.31 283.34 70.17 285.09 71.35 285.94C71.41 286.52 71.4 287.11 71.19 287.57C71.19 287.57 68.53 287.96 67.38 287.83C66.24 287.7 64.59 289.48 64.46 292.21C64.34 294.8 72.13 296.36 72.9 296.51C73.68 296.36 81.46 294.8 81.34 292.21" id="e3jOLccJ2v"></path><path d="M526.92 327.36C526.92 224.4 443.45 140.93 340.48 140.93C237.52 140.93 154.05 224.4 154.05 327.36C154.05 372.31 169.96 413.53 196.45 445.73C225.25 445.73 455.71 445.73 484.52 445.73C511.01 413.53 526.92 372.31 526.92 327.36" id="chsMoTkul"></path><path d="M426.33 278.07C427.09 278.87 427.83 279.73 428.54 280.64C422.46 276.08 412.81 270.15 402.49 268.92C411.39 268.73 420.03 271.41 426.33 278.07M376.46 304.52C378.7 310.97 382.18 316.74 385.4 320.21C385.4 320.21 384.6 320.22 383.41 320.39C380.34 315.47 377.78 310.17 376.46 304.52M477.09 366.11C466.29 339.75 454.01 334.81 454.01 334.81C454.01 334.81 454.39 334.29 455.01 333.37C460.02 335.53 464.34 339.53 467.07 344.06C467.29 344.43 467.86 344.1 467.64 343.73C464.86 339.11 460.47 335.04 455.39 332.81C455.65 332.41 455.94 331.95 456.26 331.44C460.07 332.21 463.78 333.68 467.22 335.38C467.6 335.56 467.94 334.99 467.56 334.81C464.1 333.11 460.42 331.64 456.62 330.85C463.3 319.87 477.66 289.61 435.62 286.15C438.24 283.29 441.88 281.5 445.49 280.21C445.88 280.07 445.71 279.43 445.31 279.58C441.7 280.86 438.11 282.61 435.42 285.4C435.83 283.54 436.44 281.72 437.15 279.98C437.31 279.59 436.67 279.41 436.51 279.8C435.74 281.72 435.08 283.71 434.68 285.75C434.02 285.13 432.52 283.77 430.38 282.06C429.23 280.35 427.92 278.75 426.54 277.34C419.38 269.95 409.32 267.47 399.28 268.45C399.12 268.46 399.02 268.57 398.98 268.69C392.94 268.64 386.79 270.4 381.09 275.16C374.06 281.04 373.05 290.05 374.85 298.72C374.96 300.1 375.2 301.43 375.35 302.32C376.4 308.81 379.24 314.91 382.7 320.49C378.4 321.22 370.64 323.81 372.26 333.04C374.47 345.68 384.86 361.6 372.54 363.26C360.22 364.92 354.29 393.13 397.91 419.47C441.53 445.81 483.01 420.87 465.8 400C465.8 400 487.88 392.48 477.09 366.11" id="d7I1RpQIY"></path><path d="M435.35 321.52C435.35 321.52 430.59 323.94 429.52 326.12C428.46 328.3 430.66 341.92 430.66 341.92C433.42 344.12 455.58 361.7 458.35 363.89C458.35 363.89 465.81 421.03 447.36 436.41C428.9 451.79 360.78 382.35 360.78 382.35C362.07 380.71 368.51 372.51 380.11 357.74L398.13 352.03C399.98 344.12 401.01 339.72 401.21 338.84C401.21 338.84 381.88 329.69 397.48 298.23C413.08 266.77 397.48 298.23 397.48 298.23C400 299.78 412.62 307.54 435.35 321.52" id="keOUub27o"></path><path d="M400.33 293.12C394.53 292.08 391.31 291.49 390.66 291.38C390.66 291.38 394.18 296.65 403.85 294.45C413.52 292.26 400.33 293.12 400.33 293.12" id="a7kmNbXigr"></path><path d="M399.45 359.06C397.08 354.84 395.76 352.5 395.5 352.03C395.5 352.03 384.02 353.16 379.85 358.03C375.68 362.89 349.23 411.29 349.23 411.29C349.23 411.29 337.77 416.73 328.34 421.37C330.69 422.83 333.39 425.52 334.93 430.74C343.21 427.75 354.04 423.19 357.95 420.38C357.95 420.38 383.49 400.83 386.27 387.63C389.05 374.42 399.45 359.06 399.45 359.06" id="ayf0WlIPy"></path><path d="M374.4 407.84C374.4 407.84 363.85 399.49 380.11 377.96C394.94 358.33 392.42 384.11 392.42 384.11C391.7 385.68 388.09 393.54 381.59 407.69C377.76 407.77 375.36 407.82 374.4 407.84Z" id="adjGTALvS"></path><path d="M328.34 421.37C316.56 427.16 303.14 433.77 302.37 434.15C300.98 434.85 289.85 431.37 288.47 432.07C287.07 432.76 279.43 436.93 276.65 437.63C273.87 438.32 283.6 439.71 287.77 437.63C291.94 435.55 293.33 439.71 296.8 440.41C300.28 441.1 302.37 441.8 304.45 440.41C304.45 440.41 320.49 435.96 334.93 430.74C333.39 425.52 330.69 422.84 328.34 421.37" id="hrHUJ7wFK"></path><path d="M406.62 334.76C406.62 334.76 408.7 342.41 399.67 351.44C399.35 352.05 397.72 355.06 394.8 360.48L405.23 372.3L415.66 375.77L437.9 350.05L428.17 343.8L425.39 315.3C415.38 325.68 409.12 332.17 406.62 334.76Z" id="c1OcBzmRw"></path><path d="M405.16 339.72C405.16 339.72 424.5 338.84 424.94 326.98C425.38 315.11 402.97 334.89 405.16 339.72" id="a2KNUtwPQp"></path><path d="M403.19 347.27C403.19 347.27 407.32 359.09 428.17 343.8C428.17 343.8 441.16 350.73 444.72 352.91C452.63 357.74 454.31 356.93 456.4 364.58C455.16 368.66 449 389.07 437.9 425.81L444.15 450.14L377.4 450.25C380.96 434.03 382.93 425.01 383.33 423.21C383.97 416.39 381.31 409.89 376.47 405.21C366.93 395.98 379.72 380.71 389.78 352.91C390.61 350.61 403.19 347.27 403.19 347.27" id="b5sKX0hxKb"></path><path d="M437.25 375.76C437.25 375.76 425.38 391.14 426.7 420.59C426.7 420.59 390.1 433.19 374.56 432.38C359.02 431.58 376.6 443 376.6 443C376.6 443 420.55 446.35 440.76 432.37C460.98 418.39 437.25 375.76 437.25 375.76" id="b3zheOVm5W"></path><path d="M377.96 433.83L360.75 426.51C356.44 423.27 354.05 421.48 353.57 421.12C353.12 420.78 352.55 420.62 351.99 420.67C351.16 420.74 344.53 421.35 343.71 421.42C343.37 421.45 343.05 421.58 342.78 421.78C341.33 422.88 336.63 426.51 337.81 426.51C339.2 426.51 341.98 425.81 344.07 424.42C344.07 424.42 350.32 424.42 351.02 423.73C351.02 423.73 353.8 426.51 355.19 427.2C356.58 427.9 355.88 427.2 355.88 427.2C354.95 427.49 347.51 429.75 346.58 430.03C346.1 430.18 345.68 430.48 345.4 430.89C344.23 432.59 341.02 437.2 339.9 438.32C339.9 438.32 343.37 439.71 346.15 435.54C348.93 431.37 356.58 431.37 357.27 432.07C357.27 432.07 347.54 437.63 344.76 443.19C344.76 443.19 346.08 446.61 348.24 443.88C352.43 438.61 357.93 436.96 360.05 436.24C359.66 436.69 356.49 440.31 356.09 440.76C355.59 441.33 355.66 442.2 356.23 442.69C356.61 443.02 359.67 445.64 360.05 445.97C360.05 445.97 360.75 443.19 359.36 441.8C359.71 441.45 362.49 438.67 362.83 438.32C362.83 438.32 366.67 445.97 377.96 441.45C377.96 440.43 377.96 437.89 377.96 433.83Z" id="chWTI5FfI"></path><path d="M408.28 428.36C393.44 431.46 376.78 434.01 376.78 434.01C376.81 434.76 377.05 440.69 377.08 441.43C392.3 441.77 404.55 440.82 414.17 439.4C413.84 433.72 411.01 430.33 408.28 428.36" id="apqBF8IWb"></path><path d="M453.51 358.18C444.53 354.29 436.94 375.7 436.94 375.7C427.21 395.85 429.56 422.34 429.56 422.34C426.32 424.22 417.67 426.4 408.28 428.36C411.01 430.33 413.84 433.72 414.17 439.4C434.19 436.43 442.76 431.37 442.76 431.37C451.1 418.86 462.49 362.08 453.51 358.18" id="b26aqIKvM8"></path><path d="M410.44 282.15C410.44 282.15 391.1 296.65 393.65 318.96C394.81 329.16 397.12 332.35 401.21 335.33C406.04 338.84 422.16 336.65 426.36 328.54C426.58 327.88 428.36 322.61 428.58 321.95C428.58 321.95 432.53 325.48 436.5 320.22C440.48 314.96 439.63 306.61 433.9 310.54C434.14 309.84 435.32 306.33 437.46 300.01L433.98 290.76C421.42 286.17 413.58 283.3 410.44 282.15Z" id="cGATFZtBq"></path><path d="M396.58 294.12C396.58 294.12 403.85 297.09 410.44 284.35C410.44 284.35 412.2 305 425.82 304.56C425.43 304.21 422.26 301.4 421.86 301.05C421.86 301.05 423.43 315.55 432.54 310.28C441.64 305 413.96 277.31 413.96 277.31C412.72 277.75 406.56 279.95 395.47 283.91L396.58 294.12" id="b1RZDrZFfx"></path><path d="M413.23 296.79C411.6 294.41 410.86 291.78 410.58 289.43C412.72 297.57 424.06 303.24 424.06 303.24C424.05 303.34 424.05 303.44 424.04 303.53C419.16 302.39 415.53 300.13 413.23 296.79M437.25 291.82L423.18 284.79C411.32 281.89 404.73 280.27 403.41 279.95C403.41 279.95 379.24 288.3 390.22 293.14C399.86 297.38 408.15 287.75 410.04 285.32C409.84 288.31 410.11 293.01 412.87 297.03C415.24 300.48 418.98 302.81 424.01 303.98C423.77 310.8 431.97 312.03 431.97 312.03C432.21 311.86 433.38 310.98 435.49 309.4L442.52 307.2L437.25 291.82Z" id="amgAVrE4m"></path><path d="M424.06 277.51C424.06 277.51 429.34 275.12 434.61 285.67C434.61 285.67 441.2 301.05 434.61 315.11C434.48 315.11 433.43 315.11 433.29 315.11C433.29 315.11 435.93 289.14 424.06 277.51" id="b9qeImTmz"></path><path d="M440.76 316.43C440.76 319.83 438.01 322.58 434.61 322.58C431.21 322.58 428.46 319.83 428.46 316.43C428.46 313.03 431.21 310.28 434.61 310.28C438.01 310.28 440.76 313.03 440.76 316.43" id="b1DeR5I0SE"></path><path d="M412.61 311.37C412.26 312.78 411.59 313.83 411.12 313.71C410.65 313.6 410.55 312.36 410.91 310.94C411.26 309.53 411.92 308.48 412.4 308.6C412.87 308.71 412.96 309.95 412.61 311.37" id="c3RL1LDjFS"></path><path d="M400.77 309.03C400.65 310.48 400.16 311.63 399.68 311.59C399.19 311.55 398.9 310.34 399.02 308.89C399.13 307.43 399.62 306.29 400.11 306.33C400.59 306.37 400.89 307.58 400.77 309.03" id="avM5yh8y2"></path><path d="M399.45 326.91C399.45 326.91 407.57 329.23 413.96 322.85C413.96 322.85 413.96 330.39 403.51 331.55C403.51 331.55 401.77 331.55 399.45 326.91" id="b32EX2BFzi"></path><path d="M398.86 301.07C399.14 300.75 399.5 300.47 399.92 300.3C400.34 300.14 400.8 299.98 401.25 300.09C401.47 300.13 401.67 300.23 401.87 300.32C402.06 300.44 402.23 300.58 402.38 300.75C402.38 300.76 402.35 300.83 402.35 300.84C402.12 300.9 401.92 300.92 401.72 300.93C401.53 300.96 401.34 300.96 401.17 300.98C400.99 300.99 400.82 300.98 400.65 300.97C400.48 300.95 400.31 300.96 400.14 300.98C399.8 301.05 399.47 301.19 399.16 301.4C398.85 301.6 398.59 301.89 398.36 302.22C398.38 301.78 398.59 301.41 398.86 301.07Z" id="a4uEi0gA7Q"></path><path d="M415.43 301.07C415.15 300.75 414.78 300.47 414.36 300.3C413.95 300.14 413.48 299.98 413.04 300.09C412.82 300.13 412.62 300.23 412.42 300.32C412.23 300.44 412.05 300.58 411.91 300.75C411.91 300.76 411.93 300.83 411.93 300.84C412.17 300.9 412.37 300.92 412.56 300.93C412.76 300.96 412.94 300.96 413.12 300.98C413.29 300.99 413.46 300.98 413.63 300.97C413.81 300.95 413.98 300.96 414.15 300.98C414.49 301.05 414.82 301.19 415.12 301.4C415.43 301.6 415.7 301.89 415.92 302.22C415.9 301.78 415.7 301.41 415.43 301.07Z" id="b4LvdZzVB"></path><path d="M403.07 321.52C403.07 321.52 397.06 319.21 398.44 318.28C399.54 317.55 402.1 313.62 403.11 311.33C403.23 311.05 403.65 311.12 403.67 311.43C403.87 313.8 404.07 318.51 403.07 321.52" id="a2VU9e8iLU"></path><path d="M437.25 316.43C437.25 317.89 436.07 319.07 434.61 319.07C433.16 319.07 431.97 317.89 431.97 316.43C431.97 314.97 433.16 313.79 434.61 313.79C436.07 313.79 437.25 314.97 437.25 316.43" id="dke8thllf"></path><path d="M428.99 329.17L409.12 329.17L409.12 328.16C420.73 328.16 427.18 328.16 428.47 328.16C429.26 326.62 433.39 318.65 433.79 317.75C433.88 317.79 434.53 318.16 434.61 318.2C434.15 319.22 429.33 328.53 429.13 328.92C429.11 328.96 429.06 329.04 428.99 329.17Z" id="bLHvNxsQC"></path><path d="M410.88 328.52C410.88 329.12 409.7 329.61 408.24 329.61C406.79 329.61 405.6 329.12 405.6 328.52C405.6 327.91 406.79 327.42 408.24 327.42C409.7 327.42 410.88 327.91 410.88 328.52" id="a1pJjmEgYd"></path><path d="M492.18 451.79C310.5 451.79 209.56 451.79 189.37 451.79C187.19 451.79 185.42 450.02 185.42 447.84C185.42 445.65 187.19 443.88 189.37 443.88C219.66 443.88 461.9 443.88 492.18 443.88C494.37 443.88 496.14 445.65 496.14 447.84C496.14 450.02 494.37 451.79 492.18 451.79" id="a4m2LNvz6"></path><path d="M209.02 347.65C210.57 392.82 211.43 417.91 211.6 422.93C211.76 427.59 215.59 431.3 220.26 431.3C231.09 431.3 317.69 431.3 328.51 431.3C333.42 431.3 337.34 427.23 337.18 422.33C336.92 414.8 334.86 354.58 334.6 347.06C334.44 342.39 330.61 338.68 325.93 338.68C315.11 338.68 228.51 338.68 217.68 338.68C212.78 338.68 208.85 342.75 209.02 347.65" id="c1yS1TajFb"></path><path d="M281.23 396.86C281.23 396.86 272.88 429.38 281.23 438.61C289.58 447.84 235.08 435.09 235.08 435.09C235.08 435.09 242.55 408.28 263.21 396.86C283.86 385.43 263.21 396.86 263.21 396.86C263.85 397.27 267.08 399.32 272.88 403.01L281.23 396.86" id="ceb4Zp9q2"></path><path d="M263.21 396.86C274.02 396.86 280.03 396.86 281.23 396.86C281.23 396.86 253.98 440.81 278.37 443.88C274.61 443.88 244.55 443.88 240.79 443.88C240.79 443.88 233.32 426.3 263.21 396.86" id="f3Uaw8gDjr"></path><path d="M269.36 366.25C269.36 365.41 269.49 364.61 269.73 363.85C269.6 363.85 269.48 363.84 269.36 363.84C264.23 363.84 260.07 368 260.07 373.12C260.07 378.25 264.23 382.41 269.36 382.41C274.17 382.41 278.13 378.74 278.59 374.04C278.16 374.11 277.71 374.16 277.26 374.16C272.9 374.16 269.36 370.62 269.36 366.25" id="bqTCR56TI"></path><path d="M276.97 225.12C274.17 275.56 231.01 314.17 180.58 311.37C130.15 308.57 91.54 265.41 94.34 214.98C97.14 164.55 140.3 125.94 190.73 128.74C241.16 131.54 279.77 174.69 276.97 225.12" id="b1MxUSzO9E"></path><path d="M296.9 226.23C293.49 287.67 240.92 334.71 179.48 331.3C118.04 327.89 71 275.31 74.41 213.87C77.82 152.43 130.4 105.39 191.84 108.8C253.27 112.22 300.31 164.79 296.9 226.23" id="a5F3QjBSqY"></path><path d="M176.11 227.81C176.11 227.81 152.25 227.81 143.9 231.98C135.55 236.16 131.37 246.9 133.16 254.05C134.95 261.21 125.41 279.11 135.55 288.65C144.65 297.22 151.84 296.17 154.93 295C155.29 294.87 155.59 294.74 155.83 294.62C158.22 293.42 155.83 326.23 155.83 326.23C155.83 326.23 216.08 329.81 219.66 326.23C223.24 322.65 224.43 247.49 216.08 239.14C207.73 230.79 184.46 227.81 184.46 227.81C182.79 227.81 177.78 227.81 176.11 227.81Z" id="a4pNeRupjZ"></path><path d="M174.02 206.63L173.13 227.81C184.87 235.6 191.4 239.92 192.71 240.79C193.47 241.28 194.49 240.85 194.66 239.95C194.87 238.81 195.95 233.07 197.88 222.74L178.8 199.47L174.02 206.63Z" id="bCyobY1xL"></path><path d="M172.53 220.05C172.53 220.05 175.51 222.44 177.9 220.05C177.9 220.05 191.62 243.32 203.55 239.14C215.48 234.96 191.02 215.88 191.02 215.88C190.19 215.25 186.03 212.1 178.53 206.43L171.34 211.7C171.97 216.15 172.37 218.94 172.53 220.05Z" id="l1MjqcCmdU"></path><path d="M175.22 198.88C184.76 198.28 185.95 182.77 185.95 180.98C185.95 179.19 200.87 174.42 204.45 176.21C207.85 177.91 208.76 188.84 208.92 189.63C214.16 186.45 218.76 175.13 216.38 168.45C213.39 160.1 209.81 163.08 207.43 164.87C205.04 166.66 205.04 158.31 192.51 151.15C179.99 144 194.3 159.51 179.39 158.31C164.48 157.12 163.29 172.03 163.29 172.03C155.53 172.03 150.16 178.59 156.13 185.16C162.09 191.72 157.32 192.31 156.13 198.28C155.5 201.39 161.54 202.72 167.45 203.27C169.16 200.99 171.65 199.1 175.22 198.88" id="bviLOieT"></path><path d="M190.73 207.82C201.7 212.59 211.9 207.06 215.55 204.66C212.9 200.46 210.62 196.24 210.41 192.31C210.31 190.39 210.03 188.61 209.65 186.97C209.7 186.94 209.75 186.91 209.8 186.88C209.64 186.09 207.85 177.91 204.45 176.21C200.87 174.42 185.95 179.19 185.95 180.98C185.95 182.4 185.2 192.48 180.1 196.86C181.94 201.11 185.15 205.4 190.73 207.82" id="a1lzc1mowN"></path><path d="M215.55 204.66C211.9 207.06 201.7 212.59 190.73 207.82C185.15 205.4 181.94 201.11 180.09 196.86C178.78 198 177.17 198.75 175.22 198.87C171.65 199.1 169.16 200.99 167.45 203.27C172.87 203.78 178.2 203.65 178.2 203.65C181.18 237.65 216.97 235.26 222.94 226.32C226.84 220.47 220.55 212.58 215.55 204.66" id="g10cpMXFgc"></path><path d="M156.85 195.18L184.25 196.7L183.47 210.77L156.07 209.25L156.85 195.18Z" id="i11ITTlNg6"></path><path d="M154.93 220.35C154.93 220.35 154.93 201.86 157.92 199.47C160.9 197.09 168.06 188.14 171.64 190.52C175.22 192.91 173.43 194.1 175.81 195.3C178.2 196.49 177.01 198.28 178.79 199.47C180.59 200.67 182.97 205.44 181.78 205.44C181.24 205.44 176.95 205.44 176.41 205.44C176.41 205.44 168.06 220.95 164.48 220.35C164.44 220.51 164.24 221.3 163.88 222.74L154.93 222.74C154.93 221.46 154.93 220.67 154.93 220.35Z" id="b1pcINhSPa"></path><path d="M163.58 222.44C163.58 222.44 164.78 281.49 159.41 285.07C154.04 288.65 139.72 284.48 142.71 272.54C145.69 260.62 156.43 217.07 156.43 217.07C157.86 218.14 162.15 221.36 163.58 222.44Z" id="g3BY5UvAyc"></path><path d="M191.02 211.7C191.02 211.7 201.46 214.83 206.23 213.77C206.6 213.69 206.92 214.05 206.79 214.42C206.27 215.87 205.34 218.59 205.34 219.46C205.34 220.65 194.6 218.86 191.02 211.7" id="a2asoXWThv"></path><path d="M202.72 193.8C202.72 193.8 216.65 202.18 212.87 205.79C209.1 209.4 206.17 208.83 206.17 208.83C206.17 208.83 201.3 195.93 202.72 193.8" id="heLuny4Nf"></path><path d="M191.02 196.79C190.96 196.05 191.18 195.29 191.62 194.63C192.07 193.97 192.9 193.47 193.75 193.43C194.62 193.35 195.37 193.69 196.02 194.05C196.32 194.27 196.62 194.49 196.89 194.74C197.14 195.02 197.38 195.29 197.59 195.59C197.22 195.5 196.89 195.36 196.57 195.24C196.25 195.11 195.92 195.03 195.62 194.9C194.99 194.74 194.38 194.55 193.84 194.61C193.29 194.65 192.79 194.86 192.32 195.25C191.86 195.65 191.44 196.18 191.02 196.79" id="a29lcjU3gg"></path><path d="M210.41 191.03C210.2 190.47 209.78 189.99 209.23 189.66C208.67 189.33 207.9 189.25 207.26 189.51C206.6 189.75 206.17 190.26 205.82 190.75C205.67 191.01 205.52 191.28 205.42 191.56C205.33 191.84 205.24 192.12 205.2 192.42C205.44 192.22 205.63 192.01 205.82 191.81C206.01 191.6 206.22 191.43 206.4 191.23C206.8 190.9 207.18 190.55 207.6 190.41C208.02 190.25 208.45 190.23 208.93 190.35C209.41 190.48 209.9 190.73 210.41 191.03" id="cJWcX3Bgf"></path><path d="M187.91 192.17C188.05 191.2 188.48 190.23 189.04 189.44C190.57 187.29 193.05 187.02 195.49 187.51C196.62 187.74 196.87 185.97 195.74 185.74C192.86 185.16 189.87 185.61 187.91 187.97C187.01 189.07 186.34 190.51 186.13 191.92C185.97 193.06 187.74 193.31 187.91 192.17" id="a3qwkuHSmS"></path><path d="M203.2 184.74C203.85 184.28 204.67 183.98 205.45 183.87C207.59 183.55 209.15 184.87 210.24 186.59C210.74 187.39 211.93 186.53 211.43 185.74C210.14 183.7 208.19 182.19 205.69 182.37C204.53 182.45 203.3 182.88 202.35 183.55C201.58 184.09 202.43 185.28 203.2 184.74" id="b13oHoaQWL"></path><path d="M391.44 128.5C489.6 128.5 544.14 128.5 555.05 128.5C557.91 128.5 560.22 130.82 560.22 133.67C560.22 137.8 560.22 170.82 560.22 174.95C560.22 176.67 559.37 178.28 557.95 179.24C555.33 181.01 534.4 195.15 531.78 196.92C530.42 197.84 528.66 196.54 529.14 194.97C529.49 193.82 531.23 188.06 534.37 177.7C448.61 177.7 400.97 177.7 391.44 177.7C388.58 177.7 386.26 175.38 386.26 172.53C386.26 168.64 386.26 137.56 386.26 133.67C386.26 130.82 388.58 128.5 391.44 128.5" id="a9Vqr1Miq"></path><path d="M525.91 182.51L531.71 177.68L548.63 177.68L526.88 189.76L525.91 182.51Z" id="a1Fa0qrHT7"></path><path d="M406.03 141.68C488.09 141.68 533.68 141.68 542.8 141.68C544.01 141.68 544.99 140.69 544.99 139.48C544.99 138.27 544.01 137.28 542.8 137.28C529.12 137.28 419.71 137.28 406.03 137.28C404.82 137.28 403.83 138.27 403.83 139.48C403.83 140.69 404.82 141.68 406.03 141.68" id="f4EcxjAJqe"></path><path d="M406.03 152.81C488.09 152.81 533.68 152.81 542.8 152.81C544.01 152.81 544.99 151.82 544.99 150.61C544.99 149.4 544.01 148.41 542.8 148.41C529.12 148.41 419.71 148.41 406.03 148.41C404.82 148.41 403.83 149.4 403.83 150.61C403.83 151.82 404.82 152.81 406.03 152.81" id="a62ciEsVEg"></path><path d="M475.97 163.94C516.45 163.94 538.94 163.94 543.44 163.94C544.3 163.94 544.99 163.24 544.99 162.38C544.99 162.25 544.99 161.22 544.99 161.1C544.99 160.24 544.3 159.54 543.44 159.54C536.69 159.54 482.71 159.54 475.97 159.54C475.11 159.54 474.41 160.24 474.41 161.1C474.41 161.22 474.41 162.25 474.41 162.38C474.41 163.24 475.11 163.94 475.97 163.94" id="b1u7wJqwL"></path><path d="M323.88 536.75C344.32 536.75 355.68 536.75 357.95 536.75C359.19 536.75 360.2 537.75 360.2 538.99C360.2 540.79 360.2 555.15 360.2 556.95C360.2 557.7 359.83 558.4 359.21 558.81C358.07 559.58 348.97 565.74 347.83 566.5C347.24 566.9 346.47 566.34 346.68 565.66C346.83 565.16 347.59 562.65 348.96 558.15C333.91 558.15 325.55 558.15 323.88 558.15C322.64 558.15 321.63 557.14 321.63 555.89C321.63 554.2 321.63 540.68 321.63 538.99C321.63 537.75 322.64 536.75 323.88 536.75" id="bQ7pNnKX4"></path><path d="M566.34 203.29C578.8 203.29 585.72 203.29 587.11 203.29C587.87 203.29 588.48 203.91 588.48 204.66C588.48 205.76 588.48 214.52 588.48 215.61C588.48 216.07 588.25 216.49 587.88 216.75C587.18 217.22 581.63 220.97 580.94 221.44C580.58 221.68 580.11 221.34 580.24 220.92C580.33 220.62 580.79 219.09 581.63 216.34C572.45 216.34 567.36 216.34 566.34 216.34C565.58 216.34 564.96 215.73 564.96 214.97C564.96 213.94 564.96 205.7 564.96 204.66C564.96 203.91 565.58 203.29 566.34 203.29" id="c5rEuGudk"></path><path d="M504.45 186.13C397.65 186.13 338.31 186.13 326.44 186.13C323.33 186.13 320.81 188.65 320.81 191.76C320.81 196.25 320.81 232.18 320.81 236.67C320.81 238.54 321.74 240.29 323.29 241.34C326.14 243.26 348.91 258.65 351.76 260.57C353.24 261.57 355.15 260.16 354.63 258.45C354.25 257.2 352.36 250.94 348.94 239.66C442.25 239.66 494.08 239.66 504.45 239.66C507.56 239.66 510.08 237.14 510.08 234.03C510.08 229.81 510.08 195.99 510.08 191.76C510.08 188.65 507.56 186.13 504.45 186.13" id="fzYAYJCjG"></path><path d="M358.14 244.9L351.83 239.64L333.43 239.64L357.09 252.79L358.14 244.9Z" id="aCCmO9JSt"></path><path d="M488.57 200.47C399.29 200.47 349.69 200.47 339.77 200.47C338.45 200.47 337.38 199.4 337.38 198.08C337.38 196.76 338.45 195.69 339.77 195.69C354.65 195.69 473.69 195.69 488.57 195.69C489.89 195.69 490.96 196.76 490.96 198.08C490.96 199.4 489.89 200.47 488.57 200.47" id="bltAtSCzN"></path><path d="M488.57 212.58C399.29 212.58 349.69 212.58 339.77 212.58C338.45 212.58 337.38 211.51 337.38 210.19C337.38 208.87 338.45 207.8 339.77 207.8C354.65 207.8 473.69 207.8 488.57 207.8C489.89 207.8 490.96 208.87 490.96 210.19C490.96 211.51 489.89 212.58 488.57 212.58" id="ad66fUcTc"></path><path d="M412.48 224.69C368.44 224.69 343.97 224.69 339.07 224.69C338.14 224.69 337.38 223.93 337.38 223C337.38 222.86 337.38 221.74 337.38 221.6C337.38 220.66 338.14 219.91 339.07 219.91C346.41 219.91 405.14 219.91 412.48 219.91C413.42 219.91 414.17 220.66 414.17 221.6C414.17 221.74 414.17 222.86 414.17 223C414.17 223.93 413.42 224.69 412.48 224.69" id="cj1u7ZbUO"></path><path d="M597.03 500.49C597.03 552.32 555.01 594.33 503.19 594.33C451.36 594.33 409.35 552.32 409.35 500.49C409.35 448.66 451.36 406.65 503.19 406.65C555.01 406.65 597.03 448.66 597.03 500.49" id="a4SAL0DpFO"></path><path d="M509.63 508.62C503.87 521.83 493.7 532.67 485.91 522.17C480.1 514.34 484.65 503.69 487.34 498.77C495.46 496.13 503.72 495.07 503.72 495.07C504.49 495.07 510.68 495.07 511.45 495.07C511.45 495.07 516.03 495.07 521.75 495.44C517.63 497.72 512.62 501.75 509.63 508.62" id="b1TxJbgoy"></path><path d="M494.38 495.07C494.38 495.75 494.04 506.25 494.04 506.25C493.61 505.53 491.47 501.91 487.61 495.41C491.22 495.23 493.48 495.11 494.38 495.07Z" id="a1TkgB4kAW"></path><path d="M474.47 505.56C477.41 502.62 482.35 500.4 487.34 498.77C484.65 503.69 480.1 514.34 485.91 522.17C493.7 532.67 503.87 521.83 509.62 508.62C512.62 501.75 517.63 497.72 521.75 495.43C528.59 495.87 537.05 496.83 541.26 498.93C548.99 502.8 552.85 512.74 551.2 519.36C549.54 525.98 558.37 542.54 548.99 551.38C540.56 559.31 533.91 558.34 531.05 557.26C530.72 557.13 530.44 557.01 530.22 556.9C528.01 555.79 530.22 586.15 530.22 586.15C530.22 586.15 474.47 589.47 471.15 586.15C467.84 582.84 466.74 513.29 474.47 505.56" id="a1pOOJYMii"></path><path d="M508.27 438.83C508.27 438.83 502.85 431.04 489.64 437.14C476.43 443.24 459.83 473.05 480.49 499.47C480.49 499.47 484.89 493.04 500.82 491.34C516.74 489.65 508.27 438.83 508.27 438.83" id="bfpE10La3"></path><path d="M510.98 436.12L496.41 441.88L506.58 434.77L510.98 436.12Z" id="adGD1wLSp"></path><path d="M478.67 461.35C478.67 461.35 465.25 495.41 488.96 496.09C512.67 496.76 478.67 461.35 478.67 461.35" id="gzI3xNWDN"></path><path d="M513.04 475.48L513.87 495.08C503 502.28 496.96 506.29 495.75 507.09C495.05 507.55 494.11 507.14 493.95 506.32C493.75 505.25 492.75 499.94 490.96 490.38L508.63 468.85L513.04 475.48Z" id="dIaddBbtP"></path><path d="M514.42 487.9C514.42 487.9 511.16 485.08 508.95 482.88C508.95 482.88 503.19 499.47 485.91 497.44C474.29 496.08 497.31 484.04 497.31 484.04C498.08 483.45 501.94 480.54 508.87 475.29L515.53 480.17C514.94 484.29 514.57 486.87 514.42 487.9Z" id="c1bWcgCnMq"></path><path d="M476.09 474.07C476.51 468.1 479.92 456.83 479.94 457.2C480.09 456.47 481.74 448.9 484.89 447.33C488.2 445.67 502 450.09 502 451.74C502 453.06 502.7 462.39 507.43 466.44C508.64 467.49 510.13 468.19 511.94 468.3C515.24 468.51 517.54 470.26 519.13 472.37C514.11 472.84 509.18 472.72 509.18 472.72C504.88 497.1 488.89 494.38 484.22 493.72C479.47 493.04 475.41 483.62 476.09 474.07" id="b12GVlHxzH"></path><path d="M490.99 445.61C492.01 445.61 492.18 467.04 512.08 470.55C531.98 474.07 504.88 450.01 504.88 450.01C502.1 449.13 493.77 446.49 490.99 445.61Z" id="c1d4gg1sOA"></path><path d="M496.94 482.97C496.94 482.97 488.53 485.5 484.68 484.65C484.38 484.58 484.12 484.87 484.22 485.16C484.64 486.33 485.4 488.53 485.4 489.23C485.4 490.19 494.06 488.75 496.94 482.97" id="a1VQ7DAHUb"></path><path d="M496.94 470.95C496.99 470.35 496.82 469.74 496.46 469.2C496.1 468.67 495.43 468.27 494.74 468.23C494.04 468.17 493.44 468.45 492.92 468.74C492.67 468.92 492.43 469.09 492.21 469.3C492.01 469.52 491.82 469.74 491.65 469.98C491.95 469.9 492.21 469.8 492.47 469.7C492.73 469.59 492.99 469.53 493.24 469.42C493.74 469.29 494.23 469.14 494.67 469.19C495.11 469.22 495.52 469.39 495.9 469.7C496.27 470.02 496.61 470.46 496.94 470.95" id="bk9sSBe7g"></path><path d="M481.31 466.3C481.48 465.85 481.81 465.46 482.26 465.19C482.71 464.93 483.33 464.87 483.85 465.08C484.38 465.27 484.73 465.68 485.01 466.08C485.13 466.29 485.25 466.5 485.33 466.73C485.4 466.96 485.47 467.18 485.51 467.42C485.32 467.26 485.16 467.09 485.01 466.93C484.86 466.76 484.68 466.62 484.54 466.46C484.22 466.19 483.91 465.92 483.57 465.8C483.24 465.67 482.89 465.65 482.5 465.76C482.11 465.86 481.72 466.06 481.31 466.3" id="a9USJbTbb"></path><path d="M490.99 446.97C490.99 446.97 496.75 466.95 513.18 468.65C529.61 470.34 499.8 444.25 499.8 444.25C498.69 444.25 493.16 444.25 483.2 444.25C480.15 451.78 478.46 455.95 478.12 456.79C478.12 456.79 487.94 453.74 490.99 446.97" id="cYP6EpZv0"></path><path d="M490.96 444.25C491.33 444.25 507.25 435.45 514.03 437.48C520.8 439.51 536.05 460.85 534.02 482.2C531.98 503.54 503.19 500.49 503.19 500.49C503.19 500.49 518.09 481.18 504.54 459.16C503.87 458.53 500.48 455.37 494.38 449.67C492.56 446.78 491.42 444.98 490.96 444.25Z" id="fDSL9PZdO"></path><path d="M519.29 460.34L504.65 481.08L515.3 488.6L529.94 467.86L519.29 460.34Z" id="cctp6MSGM"></path><path d="M530.04 487.8C530.04 487.8 530.04 472.98 527.65 471.07C525.26 469.16 519.52 461.99 516.65 463.9C513.79 465.81 515.22 466.77 513.31 467.73C511.4 468.68 512.35 470.12 510.92 471.07C509.48 472.03 507.57 475.85 508.53 475.85C508.96 475.85 512.4 475.85 512.83 475.85C512.83 475.85 519.52 488.28 522.39 487.8C522.42 487.93 522.58 488.57 522.87 489.72L530.04 489.72C530.04 488.7 530.04 488.06 530.04 487.8Z" id="a4wKFf2OY9"></path><path d="M521.82 484.91C521.82 484.91 521.6 544.76 526.57 548.07C531.54 551.38 544.79 547.52 542.03 536.48C539.27 525.44 529.33 485.14 529.33 485.14C527.83 485.09 523.32 484.95 521.82 484.91Z" id="a7O7TxyCm1"></path><path d="M487.27 478.81C485.44 477.79 484.42 477.23 484.22 477.12C484.22 477.12 486.43 474.23 487.46 472.24C487.6 471.98 487.99 472.07 487.99 472.36C488.02 473.99 487.94 476.78 487.27 478.81" id="b8Bgb5ayL"></path><path d="M499.06 467.98C498.35 465.7 496.44 463.79 494.13 463.19C493.82 463.11 493.95 462.62 494.27 462.7C496.75 463.35 498.79 465.39 499.55 467.84C499.65 468.16 499.15 468.29 499.06 467.98" id="baFdDL2dV"></path><path d="M486.34 460.42C484.3 460.2 482.15 461.05 480.89 462.66C480.72 462.88 480.38 462.61 480.55 462.39C481.91 460.66 484.21 459.75 486.4 459.99C486.68 460.02 486.62 460.45 486.34 460.42" id="fXaWDAd4j"></path><path d="M490.15 444.25C490.14 444.69 490.14 444.93 490.14 444.98C490.14 445.24 490.14 445.5 490.15 445.76C490.16 446.28 490.2 446.8 490.25 447.32C490.35 448.36 490.51 449.38 490.74 450.39C491.19 452.41 491.9 454.36 492.83 456.19C493.77 458.02 494.94 459.71 496.28 461.24C497.64 462.75 499.17 464.09 500.82 465.26C499.26 463.98 497.84 462.54 496.61 460.97C495.39 459.38 494.37 457.65 493.6 455.83C492.83 454.01 492.28 452.1 491.99 450.16C491.84 449.18 491.76 448.21 491.73 447.23C491.72 446.74 491.72 446.25 491.74 445.77C491.75 445.52 491.76 445.28 491.78 445.04C491.78 444.99 491.8 444.73 491.84 444.25L490.15 444.25Z" id="c3gw9bA7uR"></path></defs><g><g><g><use xlink:href="#eIExHTZEd" opacity="1" fill="#ffffff" fill-opacity="1"></use><g><use xlink:href="#eIExHTZEd" opacity="1" fill-opacity="0" stroke="#000000" stroke-width="1" stroke-opacity="0"></use></g></g><g><use xlink:href="#b4CbmRzAU1" opacity="1" fill="#ffffff" fill-opacity="1"></use><g><use xlink:href="#b4CbmRzAU1" opacity="1" fill-opacity="0" stroke="#000000" stroke-width="1" stroke-opacity="0"></use></g></g><g><use xlink:href="#d1lhNpX9PW" opacity="1" fill="#ffffff" fill-opacity="1"></use><g><use xlink:href="#d1lhNpX9PW" opacity="1" fill-opacity="0" stroke="#000000" stroke-width="1" stroke-opacity="0"></use></g></g><g><use xlink:href="#b2IvoolkoW" opacity="1" fill="#ffffff" fill-opacity="1"></use><g><use xlink:href="#b2IvoolkoW" opacity="1" fill-opacity="0" stroke="#000000" stroke-width="1" stroke-opacity="0"></use></g></g><g><use xlink:href="#a43fkbUKFN" opacity="1" fill="#ffffff" fill-opacity="1"></use><g><use xlink:href="#a43fkbUKFN" opacity="1" fill-opacity="0" stroke="#000000" stroke-width="1" stroke-opacity="0"></use></g></g><g><use xlink:href="#bsqdTmWQo" opacity="1" fill="#ffffff" fill-opacity="1"></use><g><use xlink:href="#bsqdTmWQo" opacity="1" fill-opacity="0" stroke="#000000" stroke-width="1" stroke-opacity="0"></use></g></g><g><use xlink:href="#b1j844snii" opacity="1" fill="#baccfe" fill-opacity="1"></use><g><use xlink:href="#b1j844snii" opacity="1" fill-opacity="0" stroke="#000000" stroke-width="1" stroke-opacity="0"></use></g></g><g><use xlink:href="#abZqV4xcX" opacity="1" fill="#0776fe" fill-opacity="1"></use><g><use xlink:href="#abZqV4xcX" opacity="1" fill-opacity="0" stroke="#000000" stroke-width="1" stroke-opacity="0"></use></g></g><g><use xlink:href="#a2w0uJRLbp" opacity="1" fill="#73a0e1" fill-opacity="1"></use><g><use xlink:href="#a2w0uJRLbp" opacity="1" fill-opacity="0" stroke="#000000" stroke-width="1" stroke-opacity="0"></use></g></g><g><use xlink:href="#c2rZjYXoTZ" opacity="1" fill="#baccfe" fill-opacity="1"></use><g><use xlink:href="#c2rZjYXoTZ" opacity="1" fill-opacity="0" stroke="#000000" stroke-width="1" stroke-opacity="0"></use></g></g><g><use xlink:href="#bkA4CxBkV" opacity="1" fill="#0776fe" fill-opacity="1"></use><g><use xlink:href="#bkA4CxBkV" opacity="1" fill-opacity="0" stroke="#000000" stroke-width="1" stroke-opacity="0"></use></g></g><g><use xlink:href="#d4gCme2Hh6" opacity="1" fill="#73a0e1" fill-opacity="1"></use><g><use xlink:href="#d4gCme2Hh6" opacity="1" fill-opacity="0" stroke="#000000" stroke-width="1" stroke-opacity="0"></use></g></g><g><use xlink:href="#bc2mXzxa2" opacity="1" fill="#baccfe" fill-opacity="1"></use><g><use xlink:href="#bc2mXzxa2" opacity="1" fill-opacity="0" stroke="#000000" stroke-width="1" stroke-opacity="0"></use></g></g><g><use xlink:href="#jDS7njHQA" opacity="1" fill="#0776fe" fill-opacity="1"></use><g><use xlink:href="#jDS7njHQA" opacity="1" fill-opacity="0" stroke="#000000" stroke-width="1" stroke-opacity="0"></use></g></g><g><use xlink:href="#aisQdyseQ" opacity="1" fill="#73a0e1" fill-opacity="1"></use><g><use xlink:href="#aisQdyseQ" opacity="1" fill-opacity="0" stroke="#000000" stroke-width="1" stroke-opacity="0"></use></g></g><g><use xlink:href="#eF1ROpD8u" opacity="1" fill="#ffffff" fill-opacity="1"></use><g><use xlink:href="#eF1ROpD8u" opacity="1" fill-opacity="0" stroke="#000000" stroke-width="1" stroke-opacity="0"></use></g></g><g><use xlink:href="#a3yAGKCj7R" opacity="1" fill="#ffffff" fill-opacity="1"></use><g><use xlink:href="#a3yAGKCj7R" opacity="1" fill-opacity="0" stroke="#000000" stroke-width="1" stroke-opacity="0"></use></g></g><g><use xlink:href="#b32ohA7kJe" opacity="1" fill="#73a0e1" fill-opacity="1"></use><g><use xlink:href="#b32ohA7kJe" opacity="1" fill-opacity="0" stroke="#000000" stroke-width="1" stroke-opacity="0"></use></g></g><g><use xlink:href="#e4bYklp3wS" opacity="1" fill="#ffffff" fill-opacity="1"></use><g><use xlink:href="#e4bYklp3wS" opacity="1" fill-opacity="0" stroke="#000000" stroke-width="1" stroke-opacity="0"></use></g></g><g><use xlink:href="#h1qXnKuDik" opacity="1" fill="#ffffff" fill-opacity="1"></use><g><use xlink:href="#h1qXnKuDik" opacity="1" fill-opacity="0" stroke="#000000" stroke-width="1" stroke-opacity="0"></use></g></g><g><use xlink:href="#b1epartAwc" opacity="1" fill="#ffffff" fill-opacity="1"></use><g><use xlink:href="#b1epartAwc" opacity="1" fill-opacity="0" stroke="#000000" stroke-width="1" stroke-opacity="0"></use></g></g><g><use xlink:href="#a24cNjmp2J" opacity="1" fill="#73a0e1" fill-opacity="1"></use><g><use xlink:href="#a24cNjmp2J" opacity="1" fill-opacity="0" stroke="#000000" stroke-width="1" stroke-opacity="0"></use></g></g><g><use xlink:href="#d2fkJwQHmu" opacity="1" fill="#baccfe" fill-opacity="1"></use><g><use xlink:href="#d2fkJwQHmu" opacity="1" fill-opacity="0" stroke="#000000" stroke-width="1" stroke-opacity="0"></use></g></g><g><use xlink:href="#d4BgwddUk8" opacity="1" fill="#0776fe" fill-opacity="1"></use><g><use xlink:href="#d4BgwddUk8" opacity="1" fill-opacity="0" stroke="#000000" stroke-width="1" stroke-opacity="0"></use></g></g><g><use xlink:href="#e3jOLccJ2v" opacity="1" fill="#73a0e1" fill-opacity="1"></use><g><use xlink:href="#e3jOLccJ2v" opacity="1" fill-opacity="0" stroke="#000000" stroke-width="1" stroke-opacity="0"></use></g></g><g><use xlink:href="#chsMoTkul" opacity="1" fill="#ffffff" fill-opacity="1"></use><g><use xlink:href="#chsMoTkul" opacity="1" fill-opacity="0" stroke="#000000" stroke-width="1" stroke-opacity="0"></use></g></g><g><use xlink:href="#d7I1RpQIY" opacity="1" fill="#0776f5" fill-opacity="1"></use><g><use xlink:href="#d7I1RpQIY" opacity="1" fill-opacity="0" stroke="#000000" stroke-width="1" stroke-opacity="0"></use></g></g><g><use xlink:href="#keOUub27o" opacity="1" fill="#2e7dcb" fill-opacity="1"></use><g><use xlink:href="#keOUub27o" opacity="1" fill-opacity="0" stroke="#000000" stroke-width="1" stroke-opacity="0"></use></g></g><g><use xlink:href="#a7kmNbXigr" opacity="1" fill="#0776f5" fill-opacity="1"></use><g><use xlink:href="#a7kmNbXigr" opacity="1" fill-opacity="0" stroke="#000000" stroke-width="1" stroke-opacity="0"></use></g></g><g><use xlink:href="#ayf0WlIPy" opacity="1" fill="#f3b386" fill-opacity="1"></use><g><use xlink:href="#ayf0WlIPy" opacity="1" fill-opacity="0" stroke="#000000" stroke-width="1" stroke-opacity="0"></use></g></g><g><use xlink:href="#adjGTALvS" opacity="1" fill="#f3b386" fill-opacity="1"></use><g><use xlink:href="#adjGTALvS" opacity="1" fill-opacity="0" stroke="#000000" stroke-width="1" stroke-opacity="0"></use></g></g><g><use xlink:href="#hrHUJ7wFK" opacity="1" fill="#f3b386" fill-opacity="1"></use><g><use xlink:href="#hrHUJ7wFK" opacity="1" fill-opacity="0" stroke="#000000" stroke-width="1" stroke-opacity="0"></use></g></g><g><use xlink:href="#c1OcBzmRw" opacity="1" fill="#febb8e" fill-opacity="1"></use><g><use xlink:href="#c1OcBzmRw" opacity="1" fill-opacity="0" stroke="#000000" stroke-width="1" stroke-opacity="0"></use></g></g><g><use xlink:href="#a2KNUtwPQp" opacity="1" fill="#c37139" fill-opacity="1"></use><g><use xlink:href="#a2KNUtwPQp" opacity="1" fill-opacity="0" stroke="#000000" stroke-width="1" stroke-opacity="0"></use></g></g><g><use xlink:href="#b5sKX0hxKb" opacity="1" fill="#fe4471" fill-opacity="1"></use><g><use xlink:href="#b5sKX0hxKb" opacity="1" fill-opacity="0" stroke="#000000" stroke-width="1" stroke-opacity="0"></use></g></g><g><use xlink:href="#b3zheOVm5W" opacity="1" fill="#b173b2" fill-opacity="1"></use><g><use xlink:href="#b3zheOVm5W" opacity="1" fill-opacity="0" stroke="#000000" stroke-width="1" stroke-opacity="0"></use></g></g><g><use xlink:href="#chWTI5FfI" opacity="1" fill="#febb8e" fill-opacity="1"></use><g><use xlink:href="#chWTI5FfI" opacity="1" fill-opacity="0" stroke="#000000" stroke-width="1" stroke-opacity="0"></use></g></g><g><use xlink:href="#apqBF8IWb" opacity="1" fill="#febb8e" fill-opacity="1"></use><g><use xlink:href="#apqBF8IWb" opacity="1" fill-opacity="0" stroke="#000000" stroke-width="1" stroke-opacity="0"></use></g></g><g><use xlink:href="#b26aqIKvM8" opacity="1" fill="#febb8e" fill-opacity="1"></use><g><use xlink:href="#b26aqIKvM8" opacity="1" fill-opacity="0" stroke="#000000" stroke-width="1" stroke-opacity="0"></use></g></g><g><use xlink:href="#cGATFZtBq" opacity="1" fill="#febb8e" fill-opacity="1"></use><g><use xlink:href="#cGATFZtBq" opacity="1" fill-opacity="0" stroke="#000000" stroke-width="1" stroke-opacity="0"></use></g></g><g><use xlink:href="#b1RZDrZFfx" opacity="1" fill="#c37139" fill-opacity="1"></use><g><use xlink:href="#b1RZDrZFfx" opacity="1" fill-opacity="0" stroke="#000000" stroke-width="1" stroke-opacity="0"></use></g></g><g><use xlink:href="#amgAVrE4m" opacity="1" fill="#0776f5" fill-opacity="1"></use><g><use xlink:href="#amgAVrE4m" opacity="1" fill-opacity="0" stroke="#000000" stroke-width="1" stroke-opacity="0"></use></g></g><g><use xlink:href="#b9qeImTmz" opacity="1" fill="#404449" fill-opacity="1"></use><g><use xlink:href="#b9qeImTmz" opacity="1" fill-opacity="0" stroke="#000000" stroke-width="1" stroke-opacity="0"></use></g></g><g><use xlink:href="#b1DeR5I0SE" opacity="1" fill="#e21e76" fill-opacity="1"></use><g><use xlink:href="#b1DeR5I0SE" opacity="1" fill-opacity="0" stroke="#000000" stroke-width="1" stroke-opacity="0"></use></g></g><g><use xlink:href="#c3RL1LDjFS" opacity="1" fill="#404449" fill-opacity="1"></use><g><use xlink:href="#c3RL1LDjFS" opacity="1" fill-opacity="0" stroke="#000000" stroke-width="1" stroke-opacity="0"></use></g></g><g><use xlink:href="#avM5yh8y2" opacity="1" fill="#404449" fill-opacity="1"></use><g><use xlink:href="#avM5yh8y2" opacity="1" fill-opacity="0" stroke="#000000" stroke-width="1" stroke-opacity="0"></use></g></g><g><use xlink:href="#b32EX2BFzi" opacity="1" fill="#ffffff" fill-opacity="1"></use><g><use xlink:href="#b32EX2BFzi" opacity="1" fill-opacity="0" stroke="#000000" stroke-width="1" stroke-opacity="0"></use></g></g><g><use xlink:href="#a4uEi0gA7Q" opacity="1" fill="#0776f5" fill-opacity="1"></use><g><use xlink:href="#a4uEi0gA7Q" opacity="1" fill-opacity="0" stroke="#000000" stroke-width="1" stroke-opacity="0"></use></g></g><g><use xlink:href="#b4LvdZzVB" opacity="1" fill="#0776f5" fill-opacity="1"></use><g><use xlink:href="#b4LvdZzVB" opacity="1" fill-opacity="0" stroke="#000000" stroke-width="1" stroke-opacity="0"></use></g></g><g><use xlink:href="#a2VU9e8iLU" opacity="1" fill="#fe9e91" fill-opacity="1"></use><g><use xlink:href="#a2VU9e8iLU" opacity="1" fill-opacity="0" stroke="#000000" stroke-width="1" stroke-opacity="0"></use></g></g><g><use xlink:href="#dke8thllf" opacity="1" fill="#404449" fill-opacity="1"></use><g><use xlink:href="#dke8thllf" opacity="1" fill-opacity="0" stroke="#000000" stroke-width="1" stroke-opacity="0"></use></g></g><g><use xlink:href="#bLHvNxsQC" opacity="1" fill="#404449" fill-opacity="1"></use><g><use xlink:href="#bLHvNxsQC" opacity="1" fill-opacity="0" stroke="#000000" stroke-width="1" stroke-opacity="0"></use></g></g><g><use xlink:href="#a1pJjmEgYd" opacity="1" fill="#404449" fill-opacity="1"></use><g><use xlink:href="#a1pJjmEgYd" opacity="1" fill-opacity="0" stroke="#000000" stroke-width="1" stroke-opacity="0"></use></g></g><g><use xlink:href="#a4m2LNvz6" opacity="1" fill="#cbd0d7" fill-opacity="1"></use><g><use xlink:href="#a4m2LNvz6" opacity="1" fill-opacity="0" stroke="#000000" stroke-width="1" stroke-opacity="0"></use></g></g><g><use xlink:href="#c1yS1TajFb" opacity="1" fill="#818cc3" fill-opacity="1"></use><g><use xlink:href="#c1yS1TajFb" opacity="1" fill-opacity="0" stroke="#000000" stroke-width="1" stroke-opacity="0"></use></g></g><g><use xlink:href="#ceb4Zp9q2" opacity="1" fill="#818cc3" fill-opacity="1"></use><g><use xlink:href="#ceb4Zp9q2" opacity="1" fill-opacity="0" stroke="#000000" stroke-width="1" stroke-opacity="0"></use></g></g><g><use xlink:href="#f3Uaw8gDjr" opacity="1" fill="#818cc3" fill-opacity="1"></use><g><use xlink:href="#f3Uaw8gDjr" opacity="1" fill-opacity="0" stroke="#000000" stroke-width="1" stroke-opacity="0"></use></g></g><g><use xlink:href="#bqTCR56TI" opacity="1" fill="#ffffff" fill-opacity="1"></use><g><use xlink:href="#bqTCR56TI" opacity="1" fill-opacity="0" stroke="#000000" stroke-width="1" stroke-opacity="0"></use></g></g><g><use xlink:href="#b1MxUSzO9E" opacity="1" fill="#73a0e1" fill-opacity="1"></use><g><use xlink:href="#b1MxUSzO9E" opacity="1" fill-opacity="0" stroke="#000000" stroke-width="1" stroke-opacity="0"></use></g></g><g><use xlink:href="#a5F3QjBSqY" opacity="1" fill="#fb048a" fill-opacity="1"></use><g><use xlink:href="#a5F3QjBSqY" opacity="1" fill-opacity="0" stroke="#000000" stroke-width="1" stroke-opacity="0"></use></g></g><g><use xlink:href="#a4pNeRupjZ" opacity="1" fill="#41aca4" fill-opacity="1"></use><g><use xlink:href="#a4pNeRupjZ" opacity="1" fill-opacity="0" stroke="#000000" stroke-width="1" stroke-opacity="0"></use></g></g><g><use xlink:href="#bCyobY1xL" opacity="1" fill="#f8b69d" fill-opacity="1"></use><g><use xlink:href="#bCyobY1xL" opacity="1" fill-opacity="0" stroke="#000000" stroke-width="1" stroke-opacity="0"></use></g></g><g><use xlink:href="#l1MjqcCmdU" opacity="1" fill="#f8b69d" fill-opacity="1"></use><g><use xlink:href="#l1MjqcCmdU" opacity="1" fill-opacity="0" stroke="#000000" stroke-width="1" stroke-opacity="0"></use></g></g><g><use xlink:href="#bviLOieT" opacity="1" fill="#005173" fill-opacity="1"></use><g><use xlink:href="#bviLOieT" opacity="1" fill-opacity="0" stroke="#000000" stroke-width="1" stroke-opacity="0"></use></g></g><g><use xlink:href="#a1lzc1mowN" opacity="1" fill="#f8b69d" fill-opacity="1"></use><g><use xlink:href="#a1lzc1mowN" opacity="1" fill-opacity="0" stroke="#000000" stroke-width="1" stroke-opacity="0"></use></g></g><g><use xlink:href="#g10cpMXFgc" opacity="1" fill="#005173" fill-opacity="1"></use><g><use xlink:href="#g10cpMXFgc" opacity="1" fill-opacity="0" stroke="#000000" stroke-width="1" stroke-opacity="0"></use></g></g><g><use xlink:href="#i11ITTlNg6" opacity="1" fill="#72002c" fill-opacity="1"></use><g><use xlink:href="#i11ITTlNg6" opacity="1" fill-opacity="0" stroke="#000000" stroke-width="1" stroke-opacity="0"></use></g></g><g><use xlink:href="#b1pcINhSPa" opacity="1" fill="#f8b69d" fill-opacity="1"></use><g><use xlink:href="#b1pcINhSPa" opacity="1" fill-opacity="0" stroke="#000000" stroke-width="1" stroke-opacity="0"></use></g></g><g><use xlink:href="#g3BY5UvAyc" opacity="1" fill="#f8b69d" fill-opacity="1"></use><g><use xlink:href="#g3BY5UvAyc" opacity="1" fill-opacity="0" stroke="#000000" stroke-width="1" stroke-opacity="0"></use></g></g><g><use xlink:href="#a2asoXWThv" opacity="1" fill="#eafdff" fill-opacity="1"></use><g><use xlink:href="#a2asoXWThv" opacity="1" fill-opacity="0" stroke="#000000" stroke-width="1" stroke-opacity="0"></use></g></g><g><use xlink:href="#heLuny4Nf" opacity="1" fill="#f6a09e" fill-opacity="1"></use><g><use xlink:href="#heLuny4Nf" opacity="1" fill-opacity="0" stroke="#000000" stroke-width="1" stroke-opacity="0"></use></g></g><g><use xlink:href="#a29lcjU3gg" opacity="1" fill="#ac6251" fill-opacity="1"></use><g><use xlink:href="#a29lcjU3gg" opacity="1" fill-opacity="0" stroke="#000000" stroke-width="1" stroke-opacity="0"></use></g></g><g><use xlink:href="#cJWcX3Bgf" opacity="1" fill="#ac6251" fill-opacity="1"></use><g><use xlink:href="#cJWcX3Bgf" opacity="1" fill-opacity="0" stroke="#000000" stroke-width="1" stroke-opacity="0"></use></g></g><g><use xlink:href="#a3qwkuHSmS" opacity="1" fill="#005173" fill-opacity="1"></use><g><use xlink:href="#a3qwkuHSmS" opacity="1" fill-opacity="0" stroke="#000000" stroke-width="1" stroke-opacity="0"></use></g></g><g><use xlink:href="#b13oHoaQWL" opacity="1" fill="#005173" fill-opacity="1"></use><g><use xlink:href="#b13oHoaQWL" opacity="1" fill-opacity="0" stroke="#000000" stroke-width="1" stroke-opacity="0"></use></g></g><g><use xlink:href="#a9Vqr1Miq" opacity="1" fill="#af72b0" fill-opacity="1"></use><g><use xlink:href="#a9Vqr1Miq" opacity="1" fill-opacity="0" stroke="#000000" stroke-width="1" stroke-opacity="0"></use></g></g><g><use xlink:href="#a1Fa0qrHT7" opacity="1" fill="#606060" fill-opacity="1"></use><g><use xlink:href="#a1Fa0qrHT7" opacity="1" fill-opacity="0" stroke="#000000" stroke-width="1" stroke-opacity="0"></use></g></g><g><use xlink:href="#f4EcxjAJqe" opacity="1" fill="#ffffff" fill-opacity="1"></use><g><use xlink:href="#f4EcxjAJqe" opacity="1" fill-opacity="0" stroke="#000000" stroke-width="1" stroke-opacity="0"></use></g></g><g><use xlink:href="#a62ciEsVEg" opacity="1" fill="#ffffff" fill-opacity="1"></use><g><use xlink:href="#a62ciEsVEg" opacity="1" fill-opacity="0" stroke="#000000" stroke-width="1" stroke-opacity="0"></use></g></g><g><use xlink:href="#b1u7wJqwL" opacity="1" fill="#ffffff" fill-opacity="1"></use><g><use xlink:href="#b1u7wJqwL" opacity="1" fill-opacity="0" stroke="#000000" stroke-width="1" stroke-opacity="0"></use></g></g><g><use xlink:href="#bQ7pNnKX4" opacity="1" fill="#73a0e1" fill-opacity="1"></use><g><use xlink:href="#bQ7pNnKX4" opacity="1" fill-opacity="0" stroke="#000000" stroke-width="1" stroke-opacity="0"></use></g></g><g><use xlink:href="#c5rEuGudk" opacity="1" fill="#73a0e1" fill-opacity="1"></use><g><use xlink:href="#c5rEuGudk" opacity="1" fill-opacity="0" stroke="#000000" stroke-width="1" stroke-opacity="0"></use></g></g><g><use xlink:href="#fzYAYJCjG" opacity="1" fill="#f6b947" fill-opacity="1"></use><g><use xlink:href="#fzYAYJCjG" opacity="1" fill-opacity="0" stroke="#000000" stroke-width="1" stroke-opacity="0"></use></g></g><g><use xlink:href="#aCCmO9JSt" opacity="1" fill="#f6b947" fill-opacity="1"></use><g><use xlink:href="#aCCmO9JSt" opacity="1" fill-opacity="0" stroke="#000000" stroke-width="1" stroke-opacity="0"></use></g></g><g><use xlink:href="#bltAtSCzN" opacity="1" fill="#ffffff" fill-opacity="1"></use><g><use xlink:href="#bltAtSCzN" opacity="1" fill-opacity="0" stroke="#000000" stroke-width="1" stroke-opacity="0"></use></g></g><g><use xlink:href="#ad66fUcTc" opacity="1" fill="#ffffff" fill-opacity="1"></use><g><use xlink:href="#ad66fUcTc" opacity="1" fill-opacity="0" stroke="#000000" stroke-width="1" stroke-opacity="0"></use></g></g><g><use xlink:href="#cj1u7ZbUO" opacity="1" fill="#ffffff" fill-opacity="1"></use><g><use xlink:href="#cj1u7ZbUO" opacity="1" fill-opacity="0" stroke="#000000" stroke-width="1" stroke-opacity="0"></use></g></g><g><use xlink:href="#a4SAL0DpFO" opacity="1" fill="#0a0b41" fill-opacity="1"></use><g><use xlink:href="#a4SAL0DpFO" opacity="1" fill-opacity="0" stroke="#000000" stroke-width="1" stroke-opacity="0"></use></g></g><g><use xlink:href="#b1TxJbgoy" opacity="1" fill="#f8b69d" fill-opacity="1"></use><g><use xlink:href="#b1TxJbgoy" opacity="1" fill-opacity="0" stroke="#000000" stroke-width="1" stroke-opacity="0"></use></g></g><g><use xlink:href="#a1TkgB4kAW" opacity="1" fill="#f8b69d" fill-opacity="1"></use><g><use xlink:href="#a1TkgB4kAW" opacity="1" fill-opacity="0" stroke="#000000" stroke-width="1" stroke-opacity="0"></use></g></g><g><use xlink:href="#a1pOOJYMii" opacity="1" fill="#ffcb33" fill-opacity="1"></use><g><use xlink:href="#a1pOOJYMii" opacity="1" fill-opacity="0" stroke="#000000" stroke-width="1" stroke-opacity="0"></use></g></g><g><use xlink:href="#bfpE10La3" opacity="1" fill="#b073b2" fill-opacity="1"></use><g><use xlink:href="#bfpE10La3" opacity="1" fill-opacity="0" stroke="#000000" stroke-width="1" stroke-opacity="0"></use></g></g><g><use xlink:href="#adGD1wLSp" opacity="1" fill="#b073b2" fill-opacity="1"></use><g><use xlink:href="#adGD1wLSp" opacity="1" fill-opacity="0" stroke="#000000" stroke-width="1" stroke-opacity="0"></use></g></g><g><use xlink:href="#gzI3xNWDN" opacity="1" fill="#b073b2" fill-opacity="1"></use><g><use xlink:href="#gzI3xNWDN" opacity="1" fill-opacity="0" stroke="#000000" stroke-width="1" stroke-opacity="0"></use></g></g><g><use xlink:href="#dIaddBbtP" opacity="1" fill="#f8b69d" fill-opacity="1"></use><g><use xlink:href="#dIaddBbtP" opacity="1" fill-opacity="0" stroke="#000000" stroke-width="1" stroke-opacity="0"></use></g></g><g><use xlink:href="#c1bWcgCnMq" opacity="1" fill="#f8b69d" fill-opacity="1"></use><g><use xlink:href="#c1bWcgCnMq" opacity="1" fill-opacity="0" stroke="#000000" stroke-width="1" stroke-opacity="0"></use></g></g><g><use xlink:href="#b12GVlHxzH" opacity="1" fill="#f8b69d" fill-opacity="1"></use><g><use xlink:href="#b12GVlHxzH" opacity="1" fill-opacity="0" stroke="#000000" stroke-width="1" stroke-opacity="0"></use></g></g><g><use xlink:href="#c1d4gg1sOA" opacity="1" fill="#f8b69d" fill-opacity="1"></use><g><use xlink:href="#c1d4gg1sOA" opacity="1" fill-opacity="0" stroke="#000000" stroke-width="1" stroke-opacity="0"></use></g></g><g><use xlink:href="#a1VQ7DAHUb" opacity="1" fill="#eafdff" fill-opacity="1"></use><g><use xlink:href="#a1VQ7DAHUb" opacity="1" fill-opacity="0" stroke="#000000" stroke-width="1" stroke-opacity="0"></use></g></g><g><use xlink:href="#bk9sSBe7g" opacity="1" fill="#ac6251" fill-opacity="1"></use><g><use xlink:href="#bk9sSBe7g" opacity="1" fill-opacity="0" stroke="#000000" stroke-width="1" stroke-opacity="0"></use></g></g><g><use xlink:href="#a9USJbTbb" opacity="1" fill="#ac6251" fill-opacity="1"></use><g><use xlink:href="#a9USJbTbb" opacity="1" fill-opacity="0" stroke="#000000" stroke-width="1" stroke-opacity="0"></use></g></g><g><use xlink:href="#cYP6EpZv0" opacity="1" fill="#b073b2" fill-opacity="1"></use><g><use xlink:href="#cYP6EpZv0" opacity="1" fill-opacity="0" stroke="#000000" stroke-width="1" stroke-opacity="0"></use></g></g><g><use xlink:href="#fDSL9PZdO" opacity="1" fill="#b073b2" fill-opacity="1"></use><g><use xlink:href="#fDSL9PZdO" opacity="1" fill-opacity="0" stroke="#000000" stroke-width="1" stroke-opacity="0"></use></g></g><g><use xlink:href="#cctp6MSGM" opacity="1" fill="#72002c" fill-opacity="1"></use><g><use xlink:href="#cctp6MSGM" opacity="1" fill-opacity="0" stroke="#000000" stroke-width="1" stroke-opacity="0"></use></g></g><g><use xlink:href="#a4wKFf2OY9" opacity="1" fill="#f8b69d" fill-opacity="1"></use><g><use xlink:href="#a4wKFf2OY9" opacity="1" fill-opacity="0" stroke="#000000" stroke-width="1" stroke-opacity="0"></use></g></g><g><use xlink:href="#a7O7TxyCm1" opacity="1" fill="#f8b69d" fill-opacity="1"></use><g><use xlink:href="#a7O7TxyCm1" opacity="1" fill-opacity="0" stroke="#000000" stroke-width="1" stroke-opacity="0"></use></g></g><g><use xlink:href="#b8Bgb5ayL" opacity="1" fill="#f6a39e" fill-opacity="1"></use><g><use xlink:href="#b8Bgb5ayL" opacity="1" fill-opacity="0" stroke="#000000" stroke-width="1" stroke-opacity="0"></use></g></g><g><use xlink:href="#baFdDL2dV" opacity="1" fill="#b073b2" fill-opacity="1"></use><g><use xlink:href="#baFdDL2dV" opacity="1" fill-opacity="0" stroke="#000000" stroke-width="1" stroke-opacity="0"></use></g></g><g><use xlink:href="#fXaWDAd4j" opacity="1" fill="#b073b2" fill-opacity="1"></use><g><use xlink:href="#fXaWDAd4j" opacity="1" fill-opacity="0" stroke="#000000" stroke-width="1" stroke-opacity="0"></use></g></g><g><use xlink:href="#c3gw9bA7uR" opacity="1" fill="#b073b2" fill-opacity="1"></use><g><use xlink:href="#c3gw9bA7uR" opacity="1" fill-opacity="0" stroke="#000000" stroke-width="1" stroke-opacity="0"></use></g></g></g></g></svg>